<svg width="400" height="400" viewBox="0 0 400 400" xmlns="http://www.w3.org/2000/svg">
  <rect width="400" height="400" fill="#C5D86D"/>
  <g transform="translate(200, 200)">
    <!-- Beetle body -->
    <ellipse cx="0" cy="20" rx="50" ry="70" fill="black" stroke="black" stroke-width="3"/>

    <!-- Beetle stripes -->
    <line x1="-30" y1="-10" x2="-30" y2="50" stroke="#C5D86D" stroke-width="8"/>
    <line x1="-15" y1="-10" x2="-15" y2="50" stroke="#C5D86D" stroke-width="8"/>
    <line x1="0" y1="-10" x2="0" y2="50" stroke="#C5D86D" stroke-width="8"/>
    <line x1="15" y1="-10" x2="15" y2="50" stroke="#C5D86D" stroke-width="8"/>
    <line x1="30" y1="-10" x2="30" y2="50" stroke="#C5D86D" stroke-width="8"/>

    <!-- Beetle head -->
    <ellipse cx="0" cy="-40" rx="35" ry="30" fill="black" stroke="black" stroke-width="3"/>

    <!-- Eyes -->
    <ellipse cx="-10" cy="-45" rx="8" ry="10" fill="#C5D86D"/>
    <ellipse cx="10" cy="-45" rx="8" ry="10" fill="#C5D86D"/>

    <!-- Smile -->
    <path d="M -15,-35 Q 0,-30 15,-35" stroke="#C5D86D" stroke-width="3" fill="none"/>

    <!-- Antennae -->
    <path d="M -20,-65 Q -25,-75 -30,-80" stroke="black" stroke-width="3" fill="none"/>
    <circle cx="-30" cy="-80" r="4" fill="black"/>
    <path d="M 20,-65 Q 25,-75 30,-80" stroke="black" stroke-width="3" fill="none"/>
    <circle cx="30" cy="-80" r="4" fill="black"/>

    <!-- Legs -->
    <path d="M -50,0 Q -70,-5 -80,-10" stroke="black" stroke-width="3" fill="none"/>
    <path d="M 50,0 Q 70,-5 80,-10" stroke="black" stroke-width="3" fill="none"/>
    <path d="M -50,20 Q -75,20 -90,25" stroke="black" stroke-width="3" fill="none"/>
    <path d="M 50,20 Q 75,20 90,25" stroke="black" stroke-width="3" fill="none"/>
    <path d="M -50,40 Q -70,50 -80,60" stroke="black" stroke-width="3" fill="none"/>
    <path d="M 50,40 Q 70,50 80,60" stroke="black" stroke-width="3" fill="none"/>

    <!-- Flowers (simplified) -->
    <g transform="translate(-120, -80)">
      <path d="M 0,-20 Q -5,-10 0,0 Q 5,-10 0,-20" fill="black"/>
      <circle cx="0" cy="-15" r="5" fill="black"/>
    </g>
    <g transform="translate(120, 80)">
      <path d="M 0,-20 Q -5,-10 0,0 Q 5,-10 0,-20" fill="black"/>
      <circle cx="0" cy="-15" r="5" fill="black"/>
    </g>
  </g>
</svg>
