<svg width="335" height="335" viewBox="0 0 335 335" fill="none" xmlns="http://www.w3.org/2000/svg">
<path d="M63.3514 0.132278C65.2877 4.26447 65.2116 13.8929 70.9669 14.7515C72.2593 14.9438 73.6187 12.1532 75.0855 11.1246C82.2226 6.12486 90.1959 11.9386 98.0708 9.74277C99.7657 9.26873 102.708 6.95219 104.322 8.77233C106.889 11.6702 108.441 25.4219 108.678 29.6211C109.55 45.09 107.98 61.279 108.75 76.8239L109.483 77.5528C112.712 77.4947 117.59 77.6512 119.902 80.2897C120.493 80.9606 120.81 82.3961 120.909 82.4676C121.195 82.6823 126.369 80.9606 127.446 83.9479C128.971 81.7387 131.167 79.7397 133.309 78.1208C134.673 77.0922 140.388 74.0915 140.612 73.7292C141.408 72.4368 140.379 70.9521 140.406 69.6283C140.522 63.8057 147.418 59.8568 152.721 61.4042L157.421 58.3766C142.329 53.8195 131.467 45.09 126.574 29.7553C124.186 22.2735 124.133 9.6086 125.846 1.939C126.199 0.364826 127.531 -0.704 128.694 0.825449C129.173 1.45154 129.061 2.4354 129.432 3.01229C130.313 4.39864 131.48 4.56858 131.623 6.71517C131.699 7.83766 131.136 8.89307 131.306 9.91718C131.44 10.7177 132.33 10.8116 132.701 11.4645C134.919 15.3463 132.061 15.5565 132.052 16.9383C132.048 18.2218 134.959 18.7003 133.904 22.6715C133.716 23.3736 132.643 24.2412 132.674 24.7421C132.705 25.243 134.516 26.1955 134.4 27.5774C134.284 28.9682 131.99 30.8375 132.102 31.4949C132.204 32.0853 133.653 32.7069 133.922 33.6058C134.293 34.8535 133.68 37.407 134.101 38.0599C134.194 38.2075 135.764 38.5832 136.475 39.339C137.378 40.3005 138.3 42.456 139.4 43.7261C143.567 48.547 156.013 56.6772 162.269 57.4151C174.982 58.9177 189.288 52.0083 197.109 42.0043C197.753 41.1815 197.999 39.728 198.616 39.1243C199.233 38.5206 200.646 38.4758 201.071 37.6485C201.371 37.0582 200.61 35.4125 200.883 34.1022C201.156 32.7918 202.761 31.969 202.766 31.0656C202.766 30.0952 200.87 29.1784 200.789 27.6087C200.709 26.0569 202.278 25.7438 202.274 24.7376C202.274 23.955 201.116 23.1545 200.892 22.1841C200.092 18.754 203.074 17.6941 203.133 16.9339C203.177 16.3391 201.505 15.2971 201.787 13.0745C201.997 11.4243 203.446 10.834 203.66 9.99767C204.014 8.60686 202.712 7.60511 203.844 5.34672C204.34 4.35839 205.234 4.00509 205.699 3.30298C206.558 1.99266 206.071 -0.238904 208.597 0.118862C211.008 12.0996 211.719 22.6626 206.737 34.0753C200.955 47.3261 191.349 53.8643 177.893 58.3632L182.222 61.2745C189.932 59.7898 196.478 65.8315 194.01 73.6711C199.56 75.7103 203.933 79.6771 207.873 83.9479C208.575 81.0992 213.409 82.6107 213.959 82.2709C214.37 82.016 215.233 80.2942 216.159 79.5653C219.003 77.3113 222.388 77.5036 225.823 77.6378L226.404 76.6629C226.449 72.5173 226.717 68.3627 226.655 64.1903C226.422 48.775 224.736 29.8492 228.425 14.8275C231.176 3.6205 233.358 9.87693 240.012 10.3733C246.975 10.8921 253.651 6.3261 260.417 11.4153C262.89 13.2757 263.328 16.6163 266.852 13.2936C270.322 10.0245 270.027 2.00608 271.945 0.35141C272.285 0.0562526 272.84 -0.167351 272.925 0.39613C273.332 3.54 275.241 4.09006 277.799 2.56061C279.802 9.69805 276.547 14.5502 269.786 16.7147C268.113 17.2514 263.19 17.7299 262.34 18.2844C261.942 18.5483 261.294 20.3774 260.511 21.0839C256.611 24.5945 248.942 22.8281 244.555 20.9453C243.299 20.4087 238.277 16.7729 237.36 17.6628C236.609 32.8768 236.144 48.0953 233.304 63.0812C231.672 71.7034 230.098 79.5608 224.674 86.6177C223.954 87.5569 221.856 89.0461 221.521 89.8018C220.264 92.6371 222.142 97.5162 216.392 97.8426C218.833 102.941 220.318 107.972 220.537 113.683C223.694 116.004 226.909 118.343 229.798 120.99C230.558 121.688 231.131 123.28 232.007 123.682C232.884 124.085 237.691 123.181 239.565 123.41C240.866 123.57 241.823 124.429 242.959 124.434C245.164 124.443 251.017 122.421 254.657 122.452C255.48 122.461 259.008 123.007 259.527 123.427C267.214 136.218 275.161 148.9 283.742 161.109C288.599 168.014 294.582 174.261 298.32 181.877C302.265 181.265 306.231 180.361 310.216 179.963C313.261 179.664 321.664 178.89 324.132 179.691C326.6 180.491 325.746 183.295 326.815 184.802C327.633 185.956 330.639 187.83 331.886 189.475C335.008 193.594 335.414 199.457 334.695 204.443C334.404 206.469 332.897 210.982 330.437 210.66L329.981 206.975L324.588 207.735C325.742 204.238 328.751 201.622 329.722 198.013C330.495 195.124 330.719 189.878 326.538 190.191L325.567 193.366C324.749 193.849 322.066 193.755 321.181 193.353C320.657 193.111 320.25 192.248 319.682 191.926C316.373 190.057 308.552 187.204 304.872 187.781C303.834 187.942 303.07 188.751 301.925 188.76C300.445 188.769 298.906 187.181 298.092 187.342C297.279 187.503 295.293 190.41 293.075 190.54C288.366 190.808 287.722 184.453 286.318 181.426C282.826 173.895 278.059 167.674 273.994 160.608C270.309 154.204 267.675 147.492 264.236 141.123C259.679 132.676 258.838 132.913 249.09 135.162C249.05 136.83 249.117 138.239 248.71 139.898C248.124 142.273 245.472 144.867 245.217 146.195C245.079 146.901 247.587 156.002 247.927 157.916C250.695 173.439 251.764 192.203 251.505 207.999C251.451 211.322 250.709 215.248 250.472 218.62C252.524 220.024 255.176 220.695 256.374 223.065C257.425 225.145 256.978 226.875 257.551 228.713C257.855 229.684 258.999 230.672 259.469 231.669C260.927 234.773 262.358 237.908 263.605 241.101C259.08 261.901 252.757 282.597 251.487 303.996C251.393 305.548 251.031 311.577 252.287 311.983C255.122 312.914 271.896 306.514 274.87 304.466C275.912 303.75 275.536 302.239 277.263 302.82C278.984 307.485 285.625 308.285 289.945 310.852C293.853 313.177 299.769 317.35 299.559 322.439C299.407 326.066 295.427 334.581 290.96 333.959C290.124 333.159 294.318 329.027 292.373 327.671C290.888 326.634 289.113 329.769 287.686 329.984C283.572 330.61 289.466 324.689 289.766 323.754C291.537 318.159 286.005 311.196 280.285 311.599C280.026 314.774 278.3 314.926 275.76 315.597C270.367 317.032 263.878 317.153 258.302 317.386L257.81 322.26C256.482 323.15 253.369 318.553 252.216 317.994C251.625 317.949 244.202 323.396 241.93 323.727C240.012 324.004 239.359 322.663 238.715 321.142C233.403 308.598 248.151 277.499 252.314 264.369C254.349 257.961 255.52 251.293 257.814 244.956C257.886 243.297 255.185 241.602 254.098 240.417C251.701 242.438 250.244 242.917 247.1 241.848C246.393 248.511 243.858 255.998 241.479 262.303C235.2 278.971 221.427 303.281 205.516 312.118C186.041 322.94 166.776 329.21 145.244 319.573C131.368 313.361 121.172 308.348 111.987 295.808C100.267 279.798 91.6358 261.369 87.723 241.843C85.1382 242.698 82.9202 242.666 81.1493 240.399C80.2818 241.87 77.0263 243.176 77.2499 244.822C79.4679 251.159 80.6887 257.768 82.7145 264.164C86.7615 276.967 102.297 310.195 95.9467 321.956C95.6918 322.426 95.4727 323.231 95.0434 323.495C92.8298 324.854 84.937 319.184 82.6787 317.913C80.9436 318.213 76.8295 328.163 76.521 317.39C71.0027 317.122 64.8137 317.015 59.4564 315.691C56.8806 315.056 54.7475 314.711 55.0516 311.568C51.0761 310.454 45.5489 316.214 44.9497 319.702C44.0911 324.702 48.2007 325.744 48.7373 330.064C46.2465 330.847 45.4148 326.934 43.1922 327.667C40.4734 328.561 44.4354 332.81 44.3505 333.226C43.9212 335.355 40.5091 332.801 39.7489 331.987C37.5264 329.594 35.1027 323.857 35.6124 320.592C36.1983 316.822 42.915 311.983 46.1437 310.168C50.4232 307.762 55.9325 307.386 58.2579 302.771C65.2385 308.07 74.6696 310.861 83.3405 312.033C83.2019 310.083 83.8727 308.415 83.8369 306.443C83.7028 299.296 82.0705 288.398 80.7603 281.225C78.3276 267.884 73.9541 254.535 71.6109 241.123C71.7584 237.93 76.2258 231.947 77.3438 228.785C78.2069 226.339 77.7328 223.275 79.8122 221.37C80.5904 220.655 84.1634 219.188 84.3244 218.598C83.9219 211.635 83.7072 204.712 83.8101 197.722C84.0069 184.082 84.861 169.915 87.3965 156.467C87.723 154.723 90.1288 146.687 90.0439 146.159C89.8829 145.144 86.9806 142.42 86.4932 140.488C86.0415 138.7 86.6318 136.861 85.6614 135.225C83.108 134.572 77.2365 132.984 75.081 134.411C73.9899 135.131 71.6645 139.527 70.8998 140.949C68.2257 145.917 66.1642 151.373 63.4408 156.396C58.7364 165.071 52.6592 172.924 48.5003 181.909C47.4226 184.239 47.2572 187.499 45.0928 189.225C40.4912 192.892 39.0871 187.584 36.7215 187.365C35.6661 187.266 34.4229 188.764 32.8936 188.755C31.7398 188.751 30.9707 187.924 29.9421 187.772C26.9326 187.329 19.5809 189.672 16.7144 191.063C14.9033 191.94 14.4919 193.532 11.9519 193.648C9.17485 193.773 8.78132 192.691 8.26259 190.2C4.69405 189.9 4.64933 194.413 5.09205 197.038C5.80307 201.268 9.34478 203.867 10.2302 207.73C9.37161 208.567 5.99536 205.016 4.72535 207.874C4.26475 208.911 5.32458 209.882 4.13507 210.655C-1.46369 207.31 -0.627456 195.674 2.239 190.719C3.68341 188.223 7.4979 185.943 8.32072 184.614C9.14355 183.286 8.77238 180.236 11.0664 179.565C12.5287 179.136 17.4075 179.386 19.2455 179.471C25.041 179.731 30.8052 181.068 36.5471 181.685C40.5896 174.704 45.9514 168.636 50.5932 162.075C59.4877 149.513 67.5996 136.437 75.7473 123.383C77.384 122.229 85.1874 122.712 87.4233 122.989C89.0824 123.195 90.728 124.398 91.8505 124.429C92.9729 124.46 94.3815 123.566 95.7634 123.418C98.2765 123.15 100.758 123.669 103.231 123.825C104.255 122.019 106.116 120.181 107.699 118.785C108.83 117.788 114.17 114.371 114.398 114.032C115.171 112.864 114.916 108.996 115.234 107.314C115.878 103.911 117.774 100.906 118.427 97.5967C112.882 97.23 114.867 92.7981 113.959 90.1149C113.709 89.377 112.408 89.0327 111.822 88.3529C104.846 80.2495 103.357 71.8778 101.519 61.6144C98.9205 47.1114 98.1424 32.3536 97.9501 17.6583C95.2759 17.5286 93.3664 19.6484 90.974 20.6725C86.3769 22.6313 78.9268 24.8137 74.8127 21.0661C73.82 20.1627 73.1492 18.3291 73.0106 18.2397C72.7109 18.0429 67.8724 17.3855 66.6605 17.0367C58.884 14.7783 55.311 11.0978 57.0237 2.55167L60.0824 3.4595C61.576 3.08385 62.2647 -0.699528 63.3469 0.11439L63.3514 0.132278ZM89.6772 12.3142C85.6749 13.1773 77.8267 8.29829 76.9681 14.4474C78.4886 16.0529 80.1342 14.4206 81.6725 14.2998C84.3512 14.0852 87.0432 14.5502 89.6727 13.7632V12.3142H89.6772ZM245.146 13.7721C247.784 14.51 250.454 14.1343 253.132 14.3132C254.984 14.4384 256.71 16.1021 258.302 14.0002C255.815 8.7768 250.203 12.824 245.955 12.3947L245.141 13.7721H245.146ZM105.753 48.377C105.597 43.4354 105.968 38.4356 105.776 33.494C105.624 29.5719 105.302 24.2099 104.774 20.3595C104.506 18.3918 104.345 15.5162 101.858 15.2389C101.706 22.5105 103.2 29.6882 103.799 36.9285C104.085 40.3631 103.267 44.4818 104.658 47.7688C104.953 48.462 104.765 48.5112 105.753 48.377ZM233.443 15.2345C230.558 15.0824 230.295 20.042 230.04 22.3093C229.302 28.8609 228.524 39.7996 229.034 46.2125C229.101 47.0667 228.935 47.8091 229.798 48.377C230.831 48.5693 230.948 45.8101 231.006 45.2108C231.377 41.3559 231.484 37.4025 231.502 33.5208L233.443 15.2389V15.2345ZM186.658 69.8251C187.025 69.4897 183.233 63.7341 182.736 63.2735C178.748 59.5259 171.087 64.4675 167.411 66.7483C163.807 64.5078 158.799 61.118 154.349 62.1376C151.957 62.6832 149.274 67.7053 148.156 69.8251C152.981 69.5255 157.707 68.1346 162.537 67.8842C170.685 67.4594 178.658 68.6221 186.654 69.8251H186.658ZM145.973 63.0052C141.001 66.9361 144.493 68.6802 147.172 63.7297L145.973 63.0052ZM191.533 66.9004C191.922 64.8343 190.07 63.2467 188.125 63.0052C187.512 63.6402 190.585 67.8708 191.533 66.9004ZM217.362 111.737C215.385 98.2809 206.925 84.2609 195.495 76.8284C180.948 67.3699 152.136 67.5801 137.964 77.9061C129.951 83.7467 117.345 100.785 117.926 110.999C117.966 111.724 117.747 111.88 118.615 111.688C120.528 111.263 122.858 109.729 124.862 109.157C130.443 107.56 136.193 107.453 141.819 108.813L131.637 101.215C128.667 98.5448 126.968 90.4682 132.759 90.8036C135.648 90.9691 134.722 93.9296 135.339 96.0493C138.318 106.304 155.476 115.825 165.502 117.095C174.92 118.289 194.082 107.865 198.446 99.4034C199.622 97.1226 199.922 92.4806 200.758 91.4789C202.22 89.7303 205.516 91.2463 206.053 93.0754C208.146 100.164 197.744 105.132 193.482 108.813C201.925 106.246 209.483 108.933 217.362 111.737ZM115.042 84.4309C119.469 84.3325 116.839 79.8246 113.812 80.5536C112.086 80.9695 115.453 83.3844 115.042 84.4309ZM221.749 80.5491C220.354 80.2853 216.664 81.5464 217.586 83.4604L218.668 84.3951C219.839 84.9944 222.281 81.0813 221.749 80.5491ZM122.174 88.2008C125.282 84.3549 117.541 84.6679 118.431 89.8063C119.035 90.4056 121.687 88.8001 122.174 88.2008ZM216.387 89.8063C217.112 87.8073 214.388 84.4175 212.479 85.6562C210.851 86.7116 214.809 90.4727 216.387 89.8063ZM160.301 312.502C160.766 312.185 162.439 302.852 162.635 301.438C163.145 297.811 163.606 293.541 163.771 289.905C165.471 252.232 162.953 213.146 164.259 175.33C161.45 158.005 167.715 134.625 153.258 121.509C129.79 100.213 106.733 118.307 95.1149 141.316C86.1444 159.092 86.918 189.019 87.9018 208.576C88.7917 226.299 91.0232 246.839 97.7265 263.309C100.7 270.621 116.325 299.041 121.812 303.071C122.478 303.558 122.796 303.987 123.78 303.777C123.945 302.959 123.35 302.498 123.001 301.877C118.507 293.863 112.403 286.421 108.101 278.273C99.077 261.176 95.6068 242.577 93.1473 223.535C90.5 203.053 88.9706 168.814 96.6041 149.638C97.2391 148.042 99.0859 143.096 100.651 142.921C102.623 142.63 102.713 145.564 102.842 147.067C104.099 161.512 100.879 173.246 99.4213 187.056C97.2122 208.012 96.9752 230.645 101.519 251.23C105.396 268.806 120.086 295.379 132.576 308.392C133.627 309.488 134.163 310.441 135.97 310.114C132.705 302.136 127.925 294.797 124.343 286.895C105.619 245.591 107.636 202.431 110.605 158.274C111.249 148.708 113.848 136.361 118.078 127.73C121.217 121.326 125.014 121.737 125.671 129.111C126.203 135.095 124.889 147.456 124.267 153.9C121.646 181.072 113.718 206.138 115.507 233.834C117.219 260.376 127.652 288.603 141.613 311.049C142.861 313.057 145.638 317.73 148.129 315.194C140.835 294.949 133.175 275.25 130.192 253.748C126.494 227.099 127.554 204.846 130.675 178.34C132.504 162.831 133.045 147.004 135.058 131.549C135.402 128.906 136.489 121.513 139.368 120.722C142.248 119.93 144.041 127.891 144.252 130.024C146.322 151.355 140.943 171.27 136.685 191.658C132.348 212.422 130.711 243.905 135.523 264.503C138.425 276.927 144.216 294.775 148.898 306.689C149.426 308.035 152.037 314.032 153.271 314.027L154.461 313.218C146.331 290.401 142.011 266.471 145.294 242.179C147.038 229.29 150.503 216.621 152.806 203.876C156.013 186.126 151.957 163.26 149.551 145.197C149.269 143.069 146.17 130.802 148.482 130.247C151.961 129.952 153.45 130.614 154.564 133.852C157.998 143.825 159.125 157.988 159.384 168.506C160.239 203.088 148.495 236.481 150.083 270.898C150.485 279.588 151.903 289.368 153.848 297.838C154.541 300.857 156.42 309.162 157.792 311.442C158.468 312.56 158.933 312.779 160.301 312.507V312.502ZM211.517 303.768C212.819 305.079 218.274 297.324 218.936 296.327C236.824 269.458 245.602 246.123 247.113 213.383C248.061 192.843 249.273 159.978 239.972 141.526C230.952 123.633 212.161 103.996 190.549 115.387C164.259 129.246 174.316 155.823 170.555 180.2C172.304 217.497 169.473 256.709 171.557 293.778C171.785 297.816 172.903 307.485 174.227 311.089C174.875 312.851 175.926 313.133 177.142 311.559C178.435 309.886 181.037 298.822 181.636 296.072C184.391 283.389 186.059 264.32 185.196 251.387C184.686 243.74 182.432 235.171 181.373 227.43C177.527 199.403 172.438 169.995 178.618 141.96C179.11 139.728 180.228 133.481 181.292 131.96C182.951 129.599 187.53 129.107 187.669 132.957C187.79 136.253 185.777 142.863 185.263 146.655C182.75 165.134 179.02 187.146 182.504 205.342C186.144 224.367 191.863 244.5 191.072 264.079C190.567 276.627 187.512 290.822 184.087 302.91C183.591 304.654 180.496 312.355 180.577 313.07C180.608 313.352 180.831 313.674 180.831 314L182.786 313.795C183.689 311.393 185.098 309.206 186.064 306.836C200.288 271.784 206.214 238.762 200.159 200.852C196.613 178.644 186.712 150.85 191.184 128.213C191.542 126.397 193.321 119.586 195.911 120.758C199.068 122.184 199.94 130.797 200.302 133.937C201.675 145.698 201.42 157.737 202.748 169.503C203.727 178.175 205.838 187.034 206.639 195.83C209.849 231.227 205.132 263.511 193.616 296.85C192.789 299.247 186.345 315.172 187.15 315.968C187.986 316.017 188.778 316.058 189.574 315.713C191.895 314.711 197.57 303.254 199.099 300.383C210.717 278.541 216.897 260.751 219.312 235.793C222.384 204.032 211.177 169.329 209.572 136.853C209.371 132.774 208.901 127.184 211.021 123.691C215.336 121.08 218.713 131.768 219.683 134.54C223.229 144.665 223.922 153.529 224.7 164.128C228.443 215.248 227.916 254.128 203.978 300.383C203.298 301.702 198.383 309.224 199.34 310.119L201.29 309.882C212.577 296.322 222.447 281.573 229.154 265.125C236.68 246.664 237.772 225.731 236.886 206.044C236.05 187.423 230.822 167.106 231.972 149.021C232.088 147.183 232.584 145.068 232.911 143.234C235.826 141.419 237.687 147.532 238.559 149.781C242.199 159.164 243.057 169.758 243.683 179.749C245.535 209.358 240.857 252.067 226.883 278.447C222.782 286.193 215.69 294.149 212.09 301.666C211.75 302.373 211.352 302.914 211.526 303.777L211.517 303.768ZM79.1951 126.361L78.4662 127.573C78.6451 128.36 84.6374 129.863 85.5228 129.773C87.6559 129.559 87.9957 126.361 86.5066 126.361H79.1951ZM256.352 128.306C258.566 125.61 247.739 125.945 247.543 127.153C246.863 131.379 256.017 128.713 256.352 128.306ZM98.4465 126.853C93.6482 126.035 87.9287 131.271 89.6816 136.11C90.7012 136.857 93.4917 131.696 94.234 130.923C94.6588 130.48 99.2782 127.573 98.4465 126.853ZM236.372 127.819C238.089 128.642 240.285 130.279 241.501 131.714C242.234 132.577 244.269 137.421 245.405 135.641C247.077 133.016 243.317 128.454 240.875 127.466C239.502 126.911 237.177 126.106 236.372 127.819ZM54.5821 161.945C53.3433 161.726 53.5491 161.959 52.9767 162.545C50.1013 165.469 45.2314 173.577 42.9821 177.392C42.4812 178.242 40.0128 182.222 40.4689 182.879C41.6897 183.246 42.9463 183.894 43.8943 182.687L54.5865 161.95L54.5821 161.945ZM294.855 182.897C295.467 182.217 286.542 168.6 285.504 167.151C284.784 166.145 281.479 160.993 280.232 161.95L291.528 183.308L294.85 182.897H294.855ZM11.2677 189.176C12.0503 190.437 19.6435 187.852 17.8234 185.299C15.431 183.223 9.55048 186.412 11.2677 189.176ZM317.594 184.927C313.941 186.081 322.607 191.452 323.873 188.733C324.619 185.37 320.215 184.096 317.594 184.927ZM82.8486 223.839L80.957 223.901C79.9419 226.835 80.407 230.373 82.6116 232.613C85.2008 233.15 82.0124 225.158 82.8442 223.839H82.8486ZM251.482 232.609C254.59 232.761 255.494 224.666 253.669 223.839C253.49 223.758 252.426 223.651 252.453 224.098L251.482 232.609ZM84.8073 280.379C84.691 281.113 84.387 281.636 84.4317 282.432C84.8341 289.976 92.0696 302.753 88.9572 310.606C88.5637 311.599 87.5307 312.203 87.325 312.896C86.2607 316.469 92.2351 320.758 92.5615 313.191C92.8522 306.559 88.5905 288.264 85.9163 281.94C85.6659 281.345 85.6346 280.505 84.8073 280.375V280.379ZM250.503 280.867C249.313 280.545 249.135 282.03 248.817 282.826C246.402 288.917 241.729 308.692 242.735 314.711C243.715 320.57 249.3 314.877 247.82 312.538C247.623 312.225 246.872 312.153 246.581 311.711C244.497 308.486 246.116 300.691 246.84 296.944C247.882 291.564 250.23 286.269 250.498 280.867H250.503ZM66.7008 311.143C65.1088 310.441 58.4368 308.187 58.4547 311.317C58.4726 314.622 64.7958 312.52 66.7679 313.025L66.7008 311.138V311.143ZM272.8 309.73C271.999 309.859 267.836 311.268 268.05 312.297C268.274 313.365 274.257 313.222 275.536 313.012C277.62 310.655 275.465 309.291 272.795 309.73H272.8Z" fill="black"/>
<path d="M158.004 75.7992C165.089 74.5502 161.092 86.2345 161.189 89.5741C161.308 93.8404 163.767 98.9439 167.383 101.46C171.431 99.4677 173.537 93.8404 173.665 89.6457C173.776 86.0151 170.04 74.9397 176.758 75.8037C181.306 76.3902 181.921 82.6889 181.636 86.1987C180.962 94.4985 173.023 109.764 162.795 103.622C156.21 99.6646 150.988 86.0375 154.36 79.1031C154.925 77.9436 156.701 76.0231 158.009 75.7903L158.004 75.7992Z" fill="black"/>
<path d="M149.401 98.7369C148.976 99.1268 147.734 99.3598 147.113 99.3643C140.701 99.4136 135.638 84.0074 145.968 85.2397C148.903 87.4534 152.209 96.1692 149.401 98.7369Z" fill="black"/>
<path d="M189.825 85.2329C198.603 84.1249 194.307 97.8962 190.107 99.1198C182.406 101.367 185.757 87.4532 189.825 85.2329Z" fill="black"/>
</svg>
