<svg width="276" height="66" viewBox="0 0 276 66" fill="none" xmlns="http://www.w3.org/2000/svg">
<path d="M64.888 7.704C64.888 11.304 58.624 11.952 56.032 11.952C52.648 11.952 49.48 10.944 46.888 8.712C44.008 10.584 39.472 15.264 37.96 18.36C36.592 21.24 36.016 24.408 35.512 27.504C33.928 37.152 32.056 46.656 25.072 54C22.696 56.448 17.656 59.904 14.128 59.904C6.784 59.904 0.88 58.32 0.88 49.68C0.88 46.224 4.48 41.04 7.072 38.88C8.728 37.512 15.928 34.704 18.016 34.704C18.592 34.704 18.88 35.208 18.88 35.712C18.88 36.576 13.768 37.944 12.904 38.304C7.288 40.464 3.256 45.648 3.256 51.768C3.256 54.36 7.792 57.6 10.24 57.6C11.536 57.6 12.76 57.6 14.056 57.528C23.128 56.808 28.312 43.488 29.608 35.784C29.968 33.696 30.112 31.536 30.4 29.448C31.192 24.048 33.496 18.504 36.664 14.112C38.752 11.232 42.352 9.144 45.376 7.416C44.512 6.624 42.352 5.04 42.352 3.816C42.352 3.672 42.64 3.096 42.784 3.096C43.864 3.096 46.384 5.544 47.176 6.336C50.848 4.032 54.736 1.656 59.2 1.656C62.584 1.656 64.888 4.536 64.888 7.704ZM63.088 7.344C63.088 5.688 58.336 4.536 57.04 4.536C53.656 4.536 51.424 5.904 48.616 7.56C50.92 9.216 53.656 10.008 56.464 10.008C58.264 10.008 63.088 10.008 63.088 7.344ZM57.697 37.152C59.065 37.152 59.857 38.016 59.857 38.808C59.857 43.488 54.889 45.72 51.001 48.24C49.921 48.96 43.297 51.048 43.297 52.488C43.297 53.352 45.313 53.64 45.673 53.64C49.129 53.64 54.313 52.344 59.281 49.536C61.225 48.672 60.577 49.752 59.785 50.328C56.113 53.136 51.001 55.656 44.233 55.656C41.353 55.656 40.561 54.288 39.625 52.272C39.337 51.624 40.489 48.96 41.497 47.304C43.729 43.776 47.257 40.68 50.713 38.808C53.233 37.44 55.465 37.152 57.697 37.152ZM55.537 40.176C52.369 40.176 46.321 44.784 44.593 47.952C44.593 47.952 43.873 49.248 45.673 48.528C47.329 47.952 56.905 42.984 56.905 41.184C56.905 40.608 56.473 40.176 55.537 40.176ZM219.354 11.448C219.93 12.6 221.154 14.904 220.65 16.272C218.634 21.384 211.578 25.56 208.626 25.56H207.474C207.474 24.912 207.546 25.2 207.258 24.624C207.33 24.408 214.962 20.16 215.682 16.056C216.33 12.744 210.642 9.144 209.634 8.856C208.05 8.208 199.77 3.744 187.026 3.528C169.098 3.24 153.258 12.816 144.618 17.136C131.442 24.12 119.13 33.696 115.674 36.288C105.306 44.424 97.9624 53.568 95.8024 56.52C95.4424 56.808 94.2904 58.68 92.7784 60.696C91.4104 63.216 90.0424 65.88 88.3144 65.88C87.2344 65.88 86.9464 64.728 86.9464 63.72C86.9464 60.408 92.7784 52.92 93.4984 48.96C93.4984 48.312 97.7464 40.392 97.7464 39.744C98.6824 38.52 98.8984 37.152 99.5464 36.144C101.778 31.752 102.786 28.8 98.1064 33.552C97.5304 34.128 96.3784 34.92 95.8024 35.352C95.5144 35.424 95.5864 35.496 95.2264 35.64C95.0824 35.496 94.5064 35.424 94.3624 35.28C94.7944 31.824 101.202 26.712 105.09 22.464C107.25 20.16 108.546 17.064 109.122 16.488C109.914 15.624 110.778 14.328 112.29 14.544C113.658 14.616 113.298 16.92 113.298 17.352C113.298 19.152 108.33 23.832 107.178 27C107.178 27.072 100.554 38.88 100.554 39.96C100.554 40.824 96.5944 49.032 96.8824 49.536C96.8824 49.536 99.0424 47.592 99.7624 46.44C104.802 41.688 125.322 24.264 134.106 20.52C137.13 17.136 144.114 14.976 146.418 12.744C153.114 8.856 169.962 1.152 186.09 0.719999C201.066 0.359995 216.834 6.552 219.354 11.448ZM130.599 49.032C130.167 50.328 123.471 55.08 122.103 55.08C121.455 55.08 121.095 53.712 121.095 53.208C121.095 51.336 121.455 49.392 122.175 47.664C121.311 48.096 115.839 50.976 115.407 50.976C115.119 50.976 114.903 50.832 114.687 50.688C114.759 49.968 118.143 48.456 118.863 48.096C121.599 46.584 124.119 44.352 126.279 42.12C126.855 41.472 128.151 39.096 128.943 39.096C129.375 39.096 129.663 39.6 129.663 39.96C129.663 41.256 123.759 47.16 123.759 50.544C123.759 50.616 123.975 51.12 123.975 51.264C124.191 51.336 124.479 51.552 124.695 51.552C126.855 51.552 128.223 49.464 130.167 48.888L130.599 49.032ZM135.423 24.984C136.071 24.984 136.575 25.704 136.791 26.28C137.295 27.792 137.151 29.808 135.135 31.032C133.407 31.392 134.631 33.912 132.759 34.056C131.751 33.768 132.759 29.808 132.759 29.808C132.759 28.872 133.839 24.984 135.423 24.984ZM166.581 37.512C166.581 38.304 157.653 45.864 157.653 48.456C157.653 49.176 159.165 49.968 159.741 49.968C160.965 49.968 161.829 49.896 162.693 49.536C163.557 49.248 163.917 49.752 163.197 50.472C160.533 52.128 158.661 52.704 157.797 52.704C156.429 52.704 154.269 51.12 154.269 49.896C154.269 46.008 159.309 41.328 162.045 38.88C162.333 38.664 162.189 38.232 161.757 38.232C161.037 38.232 159.597 38.592 156.933 39.096C155.493 39.384 153.549 39.816 152.757 40.032C150.093 40.896 146.925 45.072 142.893 49.536C139.509 51.912 134.469 57.096 130.437 57.096C129.069 57.096 127.629 56.16 127.629 54.72C127.629 54.288 127.845 52.128 127.845 51.624C127.845 51.048 128.997 49.608 128.997 49.104C128.997 48.096 140.733 42.264 140.733 42.264C142.029 42.264 142.029 42.48 142.029 42.984C142.029 44.28 139.941 44.208 135.549 47.448C131.877 50.112 131.661 51.912 131.661 52.632C131.661 53.208 131.877 53.496 132.453 53.496C134.397 53.496 147.069 42.84 147.069 40.536C147.069 39.672 142.893 39.888 139.437 38.088C135.189 35.856 133.101 33.12 133.101 26.928V26.136C134.469 21.024 133.317 19.728 138.069 15.192C139.221 14.112 140.517 13.536 140.877 13.248C141.813 12.528 147.789 10.872 148.725 10.872C149.229 10.872 150.813 10.728 151.317 10.728H154.845C158.013 10.728 160.749 14.76 160.749 17.28V20.592C160.749 21.096 159.813 25.2 159.813 25.848C159.813 28.656 153.693 35.496 153.693 36.792C153.693 37.44 153.981 37.512 154.269 37.512C155.997 37.584 157.077 37.224 158.733 37.008C161.037 36.72 162.837 35.568 165.213 35.928C166.509 36.144 166.581 36.576 166.581 37.512ZM149.805 12.816C147.501 12.816 141.597 13.464 138.789 17.712C136.701 20.808 135.477 23.976 135.477 28.08C135.477 28.512 136.197 30.888 136.341 31.536C137.205 35.856 145.053 37.944 146.997 37.944C148.581 37.944 149.517 37.728 151.029 36C151.245 35.352 156.789 27.288 156.789 25.128C156.789 24.624 157.869 20.304 157.869 19.8C157.869 14.544 154.701 12.816 149.805 12.816ZM168.021 21.528C168.165 21.456 168.309 21.456 168.525 21.456C170.109 21.456 170.613 22.176 170.613 23.256C170.613 25.776 168.165 32.04 166.869 32.04C165.645 32.04 165.573 31.464 165.573 30.888C165.573 29.88 166.221 28.584 166.221 27.72C166.221 27.072 165.789 27 165.789 26.208C165.789 24.696 167.085 21.888 168.021 21.528ZM185.568 37.728C185.928 37.584 186.216 37.512 186.504 37.512C187.08 37.512 187.728 37.728 187.728 38.664C187.728 39.96 183.768 42.408 183.696 43.56C183.84 43.704 183.912 43.92 184.272 43.92C186 43.92 190.536 38.952 193.416 38.952C194.064 38.952 195.072 39.312 195.072 39.96C195.072 41.544 190.824 46.656 190.176 47.16L190.464 47.376C195.36 45.504 199.248 39.24 203.352 39.24C204.648 39.24 204.792 40.464 204.792 41.04C204.792 41.184 199.248 50.112 199.248 52.272C199.248 52.992 200.328 53.28 200.4 53.28C203.136 53.28 205.224 52.488 206.808 51.624C208.824 50.472 210.912 49.176 211.272 49.176C211.56 49.176 211.704 49.32 211.704 49.536C211.704 50.04 210.192 50.76 209.544 51.264C209.328 51.408 207.96 52.272 207.096 52.776C206.88 52.92 204 54.288 203.856 54.36C201.552 55.296 200.256 55.224 199.104 55.224C197.376 55.224 195.792 54.432 195.792 52.416C195.792 52.128 195.864 51.552 195.864 51.192C195.864 50.616 197.16 48.24 197.376 46.44C197.304 45.936 197.232 45.792 196.872 45.792C195.432 45.792 190.608 49.824 190.392 49.968C189.672 50.976 186.144 53.496 184.632 53.496C183.84 53.496 182.904 52.848 182.904 51.768C182.904 50.04 186.792 47.592 186.792 45.936C186.792 45.576 185.856 45.36 185.496 45.36C183.84 45.36 174.768 52.56 171.888 54C169.872 54 170.088 53.424 170.088 52.344C170.088 49.752 175.344 46.512 176.856 44.352C176.568 44.136 173.4 45.648 173.04 45.792C171.96 46.224 169.944 46.872 168.936 47.448C168.72 47.52 164.688 49.392 163.104 50.4C162.672 50.616 162.312 50.616 162.168 50.328C162.024 50.04 162.168 49.824 162.528 49.608C163.536 49.104 169.296 45.576 170.376 45.072C178.224 41.688 185.424 37.728 185.568 37.728ZM227.982 41.112C229.566 41.112 230.718 42.696 230.718 43.488C230.718 45.504 230.214 46.44 228.99 47.88C227.55 49.608 225.678 52.2 224.238 53.064C222.366 54.144 219.414 55.872 216.678 57.096C214.806 57.96 213.582 58.104 211.494 58.104C210.702 58.104 209.478 57.024 209.406 56.016C209.262 54.504 209.982 52.56 210.558 51.48C210.63 51.408 210.846 50.976 210.918 50.832C211.062 50.544 210.846 50.256 210.486 50.256C210.198 50.256 209.766 49.968 210.342 49.608C211.134 49.104 212.358 48.456 213.366 47.232C214.518 45.648 217.11 44.064 218.838 43.128C219.486 42.768 223.158 41.112 224.526 41.184C225.318 41.256 225.822 41.472 226.038 41.76C226.326 41.256 227.19 41.112 227.982 41.112ZM227.982 45.504C228.342 44.64 227.19 43.992 226.398 43.272C226.254 43.128 225.966 43.056 225.678 43.344C224.31 45 220.422 47.16 218.55 47.376C218.55 47.376 215.67 49.032 215.382 49.104C214.23 49.464 212.574 53.136 212.574 54.216C212.574 55.224 213.582 55.44 214.374 55.44C216.03 55.368 219.774 54.216 221.286 53.136C221.79 52.848 222.942 51.768 224.166 50.544C224.742 50.328 225.102 49.824 225.174 49.392C226.326 48.096 227.478 46.656 227.982 45.504ZM250.129 42.552C250.129 42.264 253.873 36.72 254.377 35.856C255.745 33.624 257.041 31.392 258.337 29.16C260.425 25.56 262.225 22.032 263.521 19.728C264.745 17.496 265.465 14.976 266.689 12.744C267.697 10.8 270.721 2.952 272.665 2.952C273.025 2.952 273.385 3.168 273.601 3.456C274.393 3.384 275.113 3.816 275.113 4.68C275.113 5.904 272.305 9.864 271.441 11.592C269.929 14.688 268.561 17.856 266.905 20.808C265.393 23.4 264.529 25.272 262.369 28.368C259.777 32.112 257.257 35.856 254.953 39.744C254.377 40.68 254.017 41.76 253.369 42.624C252.865 43.272 252.361 43.56 251.569 43.56C250.993 43.56 250.129 43.272 250.129 42.552ZM247.753 55.224C247.753 57.096 246.457 58.608 244.513 58.608C242.713 58.608 242.281 56.232 242.281 54.864C242.281 53.64 243.433 50.256 244.873 50.256C245.665 50.256 246.169 50.544 246.169 51.408C246.169 51.768 246.025 52.056 245.881 52.344C247.249 52.416 247.753 54.072 247.753 55.224Z" fill="black"/>
</svg>
